# xmcd
#
# Track frame offsets:
#	150
#	12500
#	30106
#	56245
#	78250
#	99718
#	115596
#	134142
#	152838
#	171534
#	185949
#	200880
#
# Disc length: 2952 seconds
#
# Revision: 1
# Processed by: cddbd v1.5.1PL0 Copyright (c) Steve Scherf et al.
# Submitted via: audiograbber 1.80.04
#
DISCID=ae0b860c
DTITLE=Flat Tire - Broke Down In Oshkosh
DYEAR=2005
DGENRE=Blues
TTITLE0=Chicken Shack Boogie
TTITLE1=Layin' In The Alley
TTITLE2=Five'll Getcha Ten
TTITLE3=Met The Blues In Person
TTITLE4=Read My Mind
TTITLE5=Alimony Blues
TTITLE6=Who's Been Talkin'
TTITLE7=Next Ex-Wife
TTITLE8=My Brains Are Gone
TTITLE9=Good Rockin' Man
TTITLE10=Ain't Nobody's Business
TTITLE11=Daddy's Pinocchio
EXTD=
EXTT0=
EXTT1=
EXTT2=
EXTT3=
EXTT4=
EXTT5=
EXTT6=
EXTT7=
EXTT8=
EXTT9=
EXTT10=
EXTT11=
PLAYORDER=
